<svg style="display:none;">

<symbol id="icon-gear" xmlns="http://www.w3.org/2000/svg" fill="currentColor" class="bi bi-gear-fill" viewBox="0 0 16 16">
    <path d="M9.405 1.05c-.413-1.4-2.397-1.4-2.81 0l-.1.34a1.464 1.464 0 0 1-2.105.872l-.31-.17c-1.283-.698-2.686.705-1.987 1.987l.169.311c.446.82.023 1.841-.872 2.105l-.34.1c-1.4.413-1.4 2.397 0 2.81l.34.1a1.464 1.464 0 0 1 .872 2.105l-.17.31c-.698 1.283.705 2.686 1.987 1.987l.311-.169a1.464 1.464 0 0 1 2.105.872l.1.34c.413 1.4 2.397 1.4 2.81 0l.1-.34a1.464 1.464 0 0 1 2.105-.872l.31.17c1.283.698 2.686-.705 1.987-1.987l-.169-.311a1.464 1.464 0 0 1 .872-2.105l.34-.1c1.4-.413 1.4-2.397 0-2.81l-.34-.1a1.464 1.464 0 0 1-.872-2.105l.17-.31c.698-1.283-.705-2.686-1.987-1.987l-.311.169a1.464 1.464 0 0 1-2.105-.872l-.1-.34zM8 10.93a2.929 2.929 0 1 1 0-5.86 2.929 2.929 0 0 1 0 5.858z"/>
</symbol>

<symbol id="icon-menu-button-fill" xmlns="http://www.w3.org/2000/svg" fill="currentColor" class="bi bi-menu-button-fill" viewBox="0 0 16 16">
    <path d="M1.5 0A1.5 1.5 0 0 0 0 1.5v2A1.5 1.5 0 0 0 1.5 5h8A1.5 1.5 0 0 0 11 3.5v-2A1.5 1.5 0 0 0 9.5 0h-8zm5.927 2.427A.25.25 0 0 1 7.604 2h.792a.25.25 0 0 1 .177.427l-.396.396a.25.25 0 0 1-.354 0l-.396-.396zM0 8a2 2 0 0 1 2-2h12a2 2 0 0 1 2 2v5a2 2 0 0 1-2 2H2a2 2 0 0 1-2-2V8zm1 3v2a1 1 0 0 0 1 1h12a1 1 0 0 0 1-1v-2H1zm14-1V8a1 1 0 0 0-1-1H2a1 1 0 0 0-1 1v2h14zM2 8.5a.5.5 0 0 1 .5-.5h9a.5.5 0 0 1 0 1h-9a.5.5 0 0 1-.5-.5zm0 4a.5.5 0 0 1 .5-.5h6a.5.5 0 0 1 0 1h-6a.5.5 0 0 1-.5-.5z"/>
</symbol>

<symbol id="icon-question-circle-fill" xmlns="http://www.w3.org/2000/svg" fill="currentColor" class="bi bi-question-circle-fill" viewBox="0 0 16 16">
    <path d="M16 8A8 8 0 1 1 0 8a8 8 0 0 1 16 0zM5.496 6.033h.825c.138 0 .248-.113.266-.25.09-.656.54-1.134 1.342-1.134.686 0 1.314.343 1.314 1.168 0 .635-.374.927-.965 1.371-.673.489-1.206 1.06-1.168 1.987l.003.217a.25.25 0 0 0 .25.246h.811a.25.25 0 0 0 .25-.25v-.105c0-.718.273-.927 1.01-1.486.609-.463 1.244-.977 1.244-2.056 0-1.511-1.276-2.241-2.673-2.241-1.267 0-2.655.59-2.75 2.286a.237.237 0 0 0 .241.247zm2.325 6.443c.61 0 1.029-.394 1.029-.927 0-.552-.42-.94-1.029-.94-.584 0-1.009.388-1.009.94 0 .533.425.927 1.01.927z"/>
</symbol>

<symbol id="icon-layers" xmlns="http://www.w3.org/2000/svg" fill="currentColor" class="bi bi-layers" viewBox="0 0 16 16">
    <path d="M8.235 1.559a.5.5 0 0 0-.47 0l-7.5 4a.5.5 0 0 0 0 .882L3.188 8 .264 9.559a.5.5 0 0 0 0 .882l7.5 4a.5.5 0 0 0 .47 0l7.5-4a.5.5 0 0 0 0-.882L12.813 8l2.922-1.559a.5.5 0 0 0 0-.882l-7.5-4zm3.515 7.008L14.438 10 8 13.433 1.562 10 4.25 8.567l3.515 1.874a.5.5 0 0 0 .47 0l3.515-1.874zM8 9.433 1.562 6 8 2.567 14.438 6 8 9.433z"/>
</symbol>

<symbol id="icon-layers-half" xmlns="http://www.w3.org/2000/svg" fill="currentColor" class="bi bi-layers-half" viewBox="0 0 16 16">
    <path d="M8.235 1.559a.5.5 0 0 0-.47 0l-7.5 4a.5.5 0 0 0 0 .882L3.188 8 .264 9.559a.5.5 0 0 0 0 .882l7.5 4a.5.5 0 0 0 .47 0l7.5-4a.5.5 0 0 0 0-.882L12.813 8l2.922-1.559a.5.5 0 0 0 0-.882l-7.5-4zM8 9.433 1.562 6 8 2.567 14.438 6 8 9.433z"/>
</symbol>

<symbol id="icon-toggle2-on" xmlns="http://www.w3.org/2000/svg" fill="currentColor" class="bi bi-toggle2-on" viewBox="0 0 16 16">
    <path d="M7 5H3a3 3 0 0 0 0 6h4a4.995 4.995 0 0 1-.584-1H3a2 2 0 1 1 0-4h3.416c.156-.357.352-.692.584-1z"/>
    <path d="M16 8A5 5 0 1 1 6 8a5 5 0 0 1 10 0z"/>
</symbol>

</svg>
