<svg style="display:none;">

<symbol id="icon-gear" xmlns="http://www.w3.org/2000/svg" fill="currentColor" class="bi bi-gear-fill" viewBox="0 0 16 16">
    <path d="M9.405 1.05c-.413-1.4-2.397-1.4-2.81 0l-.1.34a1.464 1.464 0 0 1-2.105.872l-.31-.17c-1.283-.698-2.686.705-1.987 1.987l.169.311c.446.82.023 1.841-.872 2.105l-.34.1c-1.4.413-1.4 2.397 0 2.81l.34.1a1.464 1.464 0 0 1 .872 2.105l-.17.31c-.698 1.283.705 2.686 1.987 1.987l.311-.169a1.464 1.464 0 0 1 2.105.872l.1.34c.413 1.4 2.397 1.4 2.81 0l.1-.34a1.464 1.464 0 0 1 2.105-.872l.31.17c1.283.698 2.686-.705 1.987-1.987l-.169-.311a1.464 1.464 0 0 1 .872-2.105l.34-.1c1.4-.413 1.4-2.397 0-2.81l-.34-.1a1.464 1.464 0 0 1-.872-2.105l.17-.31c.698-1.283-.705-2.686-1.987-1.987l-.311.169a1.464 1.464 0 0 1-2.105-.872l-.1-.34zM8 10.93a2.929 2.929 0 1 1 0-5.86 2.929 2.929 0 0 1 0 5.858z"/>
</symbol>

<symbol id="icon-menu-button-fill" xmlns="http://www.w3.org/2000/svg" fill="currentColor" class="bi bi-menu-button-fill" viewBox="0 0 16 16">
    <path d="M1.5 0A1.5 1.5 0 0 0 0 1.5v2A1.5 1.5 0 0 0 1.5 5h8A1.5 1.5 0 0 0 11 3.5v-2A1.5 1.5 0 0 0 9.5 0h-8zm5.927 2.427A.25.25 0 0 1 7.604 2h.792a.25.25 0 0 1 .177.427l-.396.396a.25.25 0 0 1-.354 0l-.396-.396zM0 8a2 2 0 0 1 2-2h12a2 2 0 0 1 2 2v5a2 2 0 0 1-2 2H2a2 2 0 0 1-2-2V8zm1 3v2a1 1 0 0 0 1 1h12a1 1 0 0 0 1-1v-2H1zm14-1V8a1 1 0 0 0-1-1H2a1 1 0 0 0-1 1v2h14zM2 8.5a.5.5 0 0 1 .5-.5h9a.5.5 0 0 1 0 1h-9a.5.5 0 0 1-.5-.5zm0 4a.5.5 0 0 1 .5-.5h6a.5.5 0 0 1 0 1h-6a.5.5 0 0 1-.5-.5z"/>
</symbol>

<symbol id="icon-question-circle-fill" xmlns="http://www.w3.org/2000/svg" fill="currentColor" class="bi bi-question-circle-fill" viewBox="0 0 16 16">
    <path d="M16 8A8 8 0 1 1 0 8a8 8 0 0 1 16 0zM5.496 6.033h.825c.138 0 .248-.113.266-.25.09-.656.54-1.134 1.342-1.134.686 0 1.314.343 1.314 1.168 0 .635-.374.927-.965 1.371-.673.489-1.206 1.06-1.168 1.987l.003.217a.25.25 0 0 0 .25.246h.811a.25.25 0 0 0 .25-.25v-.105c0-.718.273-.927 1.01-1.486.609-.463 1.244-.977 1.244-2.056 0-1.511-1.276-2.241-2.673-2.241-1.267 0-2.655.59-2.75 2.286a.237.237 0 0 0 .241.247zm2.325 6.443c.61 0 1.029-.394 1.029-.927 0-.552-.42-.94-1.029-.94-.584 0-1.009.388-1.009.94 0 .533.425.927 1.01.927z"/>
</symbol>

<symbol id="icon-big-x" xmlns="http://www.w3.org/2000/svg" fill="currentColor" viewBox="0 0 16 16">
  <path d="m0 0 1 0 7 7 7-7 1 0 0 1-7 7 7 7 0 1 -1 0-7-7-7 7-1 0 0-1 7-7-7-7z"/>
</symbol>

<symbol id="icon-greater-than" xmlns="http://www.w3.org/2000/svg" fill="currentColor" viewBox="0 0 16 16">
    <path d="m0 0 16 8-16 8 0-2 13-6-13-6z"/>
</symbol>

<symbol id="icon-small-circle" xmlns="http://www.w3.org/2000/svg" fill="currentColor" viewBox="0 0 16 16">
    <circle cx="8" cy="8" r="4" />
</symbol>

<symbol id="icon-horizontal-bar" xmlns="http://www.w3.org/2000/svg" fill="currentColor" viewBox="0 0 16 16">
    <rect x="1" y="6" width="14" height="4" />
</symbol>

<symbol id="icon-four-panels" xmlns="http://www.w3.org/2000/svg" stroke="currentColor" viewBox="0 0 16 16">
    <rect x="0" y="0" width="8" height="8" fill="#e7fffc"/>
    <rect x="8" y="0" width="8" height="8" fill="#ffe7e8"/>
    <rect x="0" y="8" width="8" height="8" fill="#e7ffe9"/>
    <rect x="8" y="8" width="8" height="8" fill="#fffbe7"/>
</symbol>

<symbol id="icon-four-panels-glow" xmlns="http://www.w3.org/2000/svg" stroke="currentColor" viewBox="0 0 16 16">
    <rect x="0" y="0" width="8" height="8" fill="#57ffea"/>
    <rect x="8" y="0" width="8" height="8" fill="#ff5d5d"/>
    <rect x="0" y="8" width="8" height="8" fill="#56ff66"/>
    <rect x="8" y="8" width="8" height="8" fill="#ffe356"/>
</symbol>

<symbol id="icon-plus" xmlns="http://www.w3.org/2000/svg" fill="currentColor" viewBox="0 0 16 16">
    <path d="m0 7 16 0 0-2-16 0z"/>
    <path d="m7 0 0 16 2 0 0-16z"/>
</symbol>

<symbol id="icon-minus" xmlns="http://www.w3.org/2000/svg" fill="currentColor" viewBox="0 0 16 16">
    <path d="m0 7 16 0 0-2-16 0z"/>
</symbol>

<symbol id="icon-exclamation-circle" xmlns="http://www.w3.org/2000/svg" fill="currentColor" viewBox="0 0 16 16">
    <circle cx="8" cy="8" r="8" />
    <circle cx="8" cy="12" r="1" fill="white"/>
    <path d="M5 3 Q 8 1 11 3 M11 3 9 10 7 10 5 3" fill="white"/>
</symbol>

<symbol id="icon-arrow-right-path" version="1.1" viewBox="0 0 16 16" fill="currentColor" xmlns="http://www.w3.org/2000/svg">
    <path d="m1 7 10.5 0-2-5 2.5 0 3 6-3 6-2.5 0 2-5-10.5 0z" stroke-width="1"/>
</symbol>

<symbol id="icon-arrow-quad" version="1.1" viewBox="0 0 50 50" fill="currentColor" xmlns="http://www.w3.org/2000/svg">
    <path d="m26 1 10 10-8 0 0 12 12 0 0-8 10 10-10 10 0-8-12 0 0 12 8 0-10 10-10-10 8 0 0-12-12 0 0 8-10-10 10-10 0 8 12 0 0-12-8 0 z" stroke-width="1"/>
</symbol>

<symbol id="icon-arrow-double" version="1.1" viewBox="0 0 16 16" fill="currentColor" xmlns="http://www.w3.org/2000/svg">
     <path d="m0 8 3 -8 2 0 -2 7 10 0 -2 -7 2 0 3 8 -3 8 -2 0 2 -7 -10 0 2 7 -2 0z" stroke-width="1"/>
</symbol>

<symbol id="icon-go" version="1.1" viewBox="0 0 16 16" fill="currentColor" xmlns="http://www.w3.org/2000/svg">
    <g transform="translate(0 -292.77)">
	<text transform="scale(.94403 1.0593)" x="0.16817249" y="287.96558" font-size="10.038px" stroke-width=".83648" xml:space="preserve">
	    <tspan x="0" y="287.96558" font-family="sans-serif" font-size="11px" font-weight="bold" stroke-width=".83648" style="font-variant-caps:normal;font-variant-east-asian:normal;font-variant-ligatures:normal;font-variant-numeric:normal">GO</tspan>
	</text>
    </g>
</symbol>

<symbol id="icon-layers" xmlns="http://www.w3.org/2000/svg" fill="currentColor" class="bi bi-layers" viewBox="0 0 16 16">
    <path d="M8.235 1.559a.5.5 0 0 0-.47 0l-7.5 4a.5.5 0 0 0 0 .882L3.188 8 .264 9.559a.5.5 0 0 0 0 .882l7.5 4a.5.5 0 0 0 .47 0l7.5-4a.5.5 0 0 0 0-.882L12.813 8l2.922-1.559a.5.5 0 0 0 0-.882l-7.5-4zm3.515 7.008L14.438 10 8 13.433 1.562 10 4.25 8.567l3.515 1.874a.5.5 0 0 0 .47 0l3.515-1.874zM8 9.433 1.562 6 8 2.567 14.438 6 8 9.433z"/>
</symbol>

<symbol id="icon-layers-half" xmlns="http://www.w3.org/2000/svg" fill="currentColor" class="bi bi-layers-half" viewBox="0 0 16 16">
    <path d="M8.235 1.559a.5.5 0 0 0-.47 0l-7.5 4a.5.5 0 0 0 0 .882L3.188 8 .264 9.559a.5.5 0 0 0 0 .882l7.5 4a.5.5 0 0 0 .47 0l7.5-4a.5.5 0 0 0 0-.882L12.813 8l2.922-1.559a.5.5 0 0 0 0-.882l-7.5-4zM8 9.433 1.562 6 8 2.567 14.438 6 8 9.433z"/>
</symbol>

<symbol id="icon-toggle2-on" xmlns="http://www.w3.org/2000/svg" fill="currentColor" class="bi bi-toggle2-on" viewBox="0 0 16 16">
    <path d="M7 5H3a3 3 0 0 0 0 6h4a4.995 4.995 0 0 1-.584-1H3a2 2 0 1 1 0-4h3.416c.156-.357.352-.692.584-1z"/>
    <path d="M16 8A5 5 0 1 1 6 8a5 5 0 0 1 10 0z"/>
</symbol>

<symbol id="icon-expand" xmlns="http://www.w3.org/2000/svg" fill="currentColor" viewBox="0 0 16 16">
    <path d="m7 7 -1 0 -4 -4 -2 2 0 -5 5 0 -2 2 4 4z"/>
    <path d="m9 9  1 0 4 4 2-2 0 5 -5 0 2 -2 -4 -4z"/>
    <path d="m7 9 -1 0 -4 4 -2 -2 0 5 5 0 -2 -2 4 -4z"/>
    <path d="m9 7 1 0 4 -4 2 2 0 -5 -5 0 2 2 -4 4z"/>
</symbol>

<symbol id="icon-shrink" xmlns="http://www.w3.org/2000/svg" fill="currentColor" viewBox="0 0 16 16">
    <path d="m0 0   1 0 4 4 2-2 0 5 -5 0 2 -2 -4 -4z"/>
    <path d="m16 0 -1 0 -4 4 -2 -2 0 5 5 0 -2 -2 4 -4z"/>
    <path d="m0 16 1 0 4 -4 2 2 0 -5 -5 0 2 2 -4 4z"/>
    <path d="m16 16 -1 0 -4 -4 -2 2 0 -5 5 0 -2 2 4 4z"/>
</symbol>

<symbol id="icon-zoom-in" fill="currentColor" version="1.1" xmlns="http://www.w3.org/2000/svg" viewBox="0 0 192.904 192.904">
     <path d="M190.707,180.101l-47.078-47.077c11.702-14.072,18.752-32.142,18.752-51.831C162.381,36.423,125.959,0,81.191,0
	 C36.422,0,0,36.423,0,81.193c0,44.767,36.422,81.187,81.191,81.187c19.688,0,37.759-7.049,51.831-18.751l47.079,47.078
	 c1.464,1.465,3.384,2.197,5.303,2.197c1.919,0,3.839-0.732,5.304-2.197C193.637,187.778,193.637,183.03,190.707,180.101z
	 M15,81.193C15,44.694,44.693,15,81.191,15c36.497,0,66.189,29.694,66.189,66.193c0,36.496-29.692,66.187-66.189,66.187
	 C44.693,147.38,15,117.689,15,81.193z"/>
    <path d="M118.035,73.689H88.69V44.345c0-4.142-3.357-7.5-7.5-7.5s-7.5,3.358-7.5,7.5v29.345H44.346c-4.143,0-7.5,3.358-7.5,7.5
	c0,4.142,3.357,7.5,7.5,7.5H73.69v29.346c0,4.142,3.357,7.5,7.5,7.5s7.5-3.358,7.5-7.5V88.689h29.345c4.143,0,7.5-3.358,7.5-7.5
	C125.535,77.047,122.178,73.689,118.035,73.689z"/>
</symbol>

<symbol id="icon-zoom-out" fill="currentColor" version="1.1" xmlns="http://www.w3.org/2000/svg" viewBox="0 0 192.904 192.904">
     <path d="M190.707,180.101l-47.079-47.077c11.702-14.072,18.752-32.142,18.752-51.831C162.381,36.423,125.959,0,81.191,0
	 C36.422,0,0,36.423,0,81.193c0,44.767,36.422,81.187,81.191,81.187c19.689,0,37.759-7.049,51.831-18.75l47.079,47.077
	 c1.464,1.465,3.384,2.197,5.303,2.197c1.919,0,3.839-0.732,5.303-2.197C193.637,187.778,193.637,183.03,190.707,180.101z
	 M15,81.193C15,44.694,44.693,15,81.191,15c36.497,0,66.189,29.694,66.189,66.193c0,36.496-29.692,66.187-66.189,66.187
	 C44.693,147.38,15,117.689,15,81.193z"/>
     <path d="M118.035,73.689H44.346c-4.142,0-7.5,3.358-7.5,7.5c0,4.142,3.358,7.5,7.5,7.5h73.689c4.142,0,7.5-3.358,7.5-7.5
	 C125.535,77.047,122.177,73.689,118.035,73.689z"/>
</symbol>

<symbol id="icon-make-primary" fill="currentColor" version="1.1" xmlns="http://www.w3.org/2000/svg" viewBox="0 0 12 12">
    <text x="0" y="12" font-size='1em'>P</text>
</symbol>

<symbol id="icon-open-folder" fill="currentColor" version="1.1" xmlns="http://www.w3.org/2000/svg" xmlns:xlink="http://www.w3.org/1999/xlink"
	 viewBox="0 0 476.664 476.664" xml:space="preserve">
    <path d="M454.571,138.49c2.452,0,4.847,0.418,7.249,0.749v-35.784c0-12.205-9.888-22.096-22.087-22.096H222.557
	    c-18.598,0-33.681-15.082-33.681-33.679v-2.522c0-12.206-9.888-22.096-22.095-22.096H36.931c-12.2,0-22.087,9.89-22.087,22.096
	    v94.081c2.402-0.331,4.798-0.749,7.249-0.749H454.571z"/>
    <path d="M470.631,177.686c-4.175-4.413-9.983-6.919-16.06-6.919H22.093c-6.076,0-11.884,2.506-16.059,6.919
	    c-4.177,4.42-6.345,10.362-5.998,16.431l13.616,238.65c0.67,11.694,10.347,20.835,22.057,20.835h405.246
	    c11.71,0,21.387-9.141,22.057-20.835l13.616-238.65C476.975,188.048,474.808,182.106,470.631,177.686z"/>
</symbol>

<symbol id="icon-file-pdf" version="1.1" xmlns="http://www.w3.org/2000/svg" xmlns:xlink="http://www.w3.org/1999/xlink" viewBox="0 0 550.801 550.801" xml:space="preserve">
    <path d="M160.381,282.225c0-14.832-10.299-23.684-28.474-23.684c-7.414,0-12.437,0.715-15.071,1.432V307.6
	    c3.114,0.707,6.942,0.949,12.192,0.949C148.419,308.549,160.381,298.74,160.381,282.225z"/>
    <path d="M272.875,259.019c-8.145,0-13.397,0.717-16.519,1.435v105.523c3.116,0.729,8.142,0.729,12.69,0.729
	    c33.017,0.231,54.554-17.946,54.554-56.474C323.842,276.719,304.215,259.019,272.875,259.019z"/>
    <path d="M488.426,197.019H475.2v-63.816c0-0.398-0.063-0.799-0.116-1.202c-0.021-2.534-0.827-5.023-2.562-6.995L366.325,3.694
	    c-0.032-0.031-0.063-0.042-0.085-0.076c-0.633-0.707-1.371-1.295-2.151-1.804c-0.231-0.155-0.464-0.285-0.706-0.419
	    c-0.676-0.369-1.393-0.675-2.131-0.896c-0.2-0.056-0.38-0.138-0.58-0.19C359.87,0.119,359.037,0,358.193,0H97.2
	    c-11.918,0-21.6,9.693-21.6,21.601v175.413H62.377c-17.049,0-30.873,13.818-30.873,30.873v160.545
	    c0,17.043,13.824,30.87,30.873,30.87h13.224V529.2c0,11.907,9.682,21.601,21.6,21.601h356.4c11.907,0,21.6-9.693,21.6-21.601
	    V419.302h13.226c17.044,0,30.871-13.827,30.871-30.87v-160.54C519.297,210.838,505.47,197.019,488.426,197.019z M97.2,21.605
	    h250.193v110.513c0,5.967,4.841,10.8,10.8,10.8h95.407v54.108H97.2V21.605z M362.359,309.023c0,30.876-11.243,52.165-26.82,65.333
	    c-16.971,14.117-42.82,20.814-74.396,20.814c-18.9,0-32.297-1.197-41.401-2.389V234.365c13.399-2.149,30.878-3.346,49.304-3.346
	    c30.612,0,50.478,5.508,66.039,17.226C351.828,260.69,362.359,280.547,362.359,309.023z M80.7,393.499V234.365
	    c11.241-1.904,27.042-3.346,49.296-3.346c22.491,0,38.527,4.308,49.291,12.928c10.292,8.131,17.215,21.534,17.215,37.328
	    c0,15.799-5.25,29.198-14.829,38.285c-12.442,11.728-30.865,16.996-52.407,16.996c-4.778,0-9.1-0.243-12.435-0.723v57.67H80.7
	    V393.499z M453.601,523.353H97.2V419.302h356.4V523.353z M484.898,262.127h-61.989v36.851h57.913v29.674h-57.913v64.848h-36.593
	    V232.216h98.582V262.127z"/>
</symbol>

<symbol id="icon-thumbnail" fill="currentColor" version="1.1" xmlns="http://www.w3.org/2000/svg" xmlns:xlink="http://www.w3.org/1999/xlink" viewBox="0 0 438 438" xml:space="preserve">
<path d="M316.198,66.434C309.771,25.098,273.763,0,219.001,0c-54.763,0-90.772,25.098-97.199,66.434
	c-28.08,26.614-44.129,63.79-44.129,102.497V428c0,5.523,4.477,10,10,10c5.523,0,10-4.477,10-10V168.931
	c0-25.67,8.227-50.559,23.088-71.089v103.783c0,23.336,8.185,44.794,21.827,61.666c0.216,0.301,0.452,0.59,0.704,0.87
	c18.034,21.794,45.278,35.703,75.709,35.703c30.213,0,57.279-13.713,75.315-35.238c0.522-0.511,0.974-1.07,1.361-1.662
	c13.484-16.821,21.563-38.152,21.563-61.338V97.842c14.861,20.53,23.088,45.419,23.088,71.089V428c0,5.523,4.477,10,10,10
	c5.523,0,10-4.477,10-10V168.931C360.328,130.224,344.278,93.048,316.198,66.434z M140.76,80.184
	C140.76,25.864,195.476,20,219.001,20c23.524,0,78.239,5.864,78.239,60.184v121.441c0,14.588-4.025,28.25-11.006,39.953
	c-18.112-17.295-41.988-27.01-67.233-27.01c-25.243,0-49.122,9.715-67.234,27.011c-6.981-11.703-11.006-25.365-11.006-39.954V80.184
	z M164.196,257.393c14.571-14.596,34.12-22.825,54.805-22.825c20.686,0,40.234,8.229,54.804,22.825
	c-14.127,13.885-33.478,22.471-54.804,22.471C197.675,279.863,178.324,271.277,164.196,257.393z"/>
</symbol>

<symbol id="icon-floppy-disk" fill="currentColor" version="1.1" xmlns="http://www.w3.org/2000/svg" xmlns:xlink="http://www.w3.org/1999/xlink" viewBox="0 0 492.308 492.308" xml:space="preserve">
    <path d="M398.317,0h-21.836H115.827H0v492.308h87.442h317.423h87.442V82.067L398.317,0z M135.519,19.692h221.269V153.99H135.519
	    V19.692z M385.173,472.615H107.135V259.385h278.038V472.615z M472.615,472.615h-67.75V239.692H87.442v232.923h-67.75V19.692
	    h96.135v153.99h260.654V19.692h14.452l81.683,71.317V472.615z"/>
    <rect x="143.911" y="299.49" width="204.495" height="19.692"/>
    <rect x="304.581" y="57.482" width="19.692" height="70.036"/>
    <rect x="143.911" y="356.431" width="204.495" height="19.692"/>
    <rect x="143.911" y="413.292" width="204.495" height="19.692"/>
</symbol>

<symbol id="icon-return-arrow" fill="currentColor" version="1.1" xmlns="http://www.w3.org/2000/svg" xmlns:xlink="http://www.w3.org/1999/xlink" viewBox="0 0 219.272 219.271"
	 xml:space="preserve">
    <path d="M120.774,179.271v40c47.303,0,85.784-38.482,85.784-85.785c0-47.3-38.481-85.782-85.784-85.782H89.282L108.7,28.286
	    L80.417,0L12.713,67.703l67.703,67.701l28.283-28.284L89.282,87.703h31.492c25.246,0,45.784,20.538,45.784,45.783
	    C166.558,158.73,146.02,179.271,120.774,179.271z"/>
</symbol>

<symbol id="icon-links" viewBox="0 0 24 24" fill="none" xmlns="http://www.w3.org/2000/svg">^
    <path d="M10.0002 13C10.4297 13.5741 10.9776 14.0491 11.6067 14.3929C12.2359 14.7367 12.9317 14.9411 13.6468 14.9923C14.362 15.0435 15.0798 14.9403 15.7515 14.6897C16.4233
	14.4392 17.0333 14.047 17.5402 13.54L20.5402 10.54C21.451 9.59695 21.955 8.33394 21.9436 7.02296C21.9322 5.71198 21.4063 4.45791 20.4793 3.53087C19.5523 2.60383 18.2982
	2.07799 16.9872 2.0666C15.6762 2.0552 14.4132 2.55918 13.4702 3.46997L11.7502 5.17997M14.0002 11C13.5707 10.4258 13.0228 9.95078 12.3936 9.60703C11.7645 9.26327 11.0687
	9.05885 10.3535   9.00763C9.63841 8.95641 8.92061 9.0596 8.24885 9.31018C7.5771 9.56077 6.96709 9.9529 6.4602 10.46L3.4602 13.46C2.54941 14.403 2.04544 15.666 2.05683
	16.977C2.06822 18.288 2.59407 19.542 3.52111 20.4691C4.44815 21.3961 5.70221 21.9219 7.01319 21.9333C8.32418 21.9447 9.58719 21.4408 10.5302 20.53L12.2402 18.82"
        stroke="currentColor" stroke-width="2" stroke-linecap="round" stroke-linejoin="round"/>
</symbol>

</svg>
